<svg id="Layer_1" data-name="Layer 1" xmlns="http://www.w3.org/2000/svg" viewBox="0 0 512 512"><defs><style>.cls-1{fill:#f56c1d;}</style></defs><title>Artboard 1</title><g id="outline"><path class="cls-1" d="M452,40H60A36,36,0,0,0,24,76V372a36,36,0,0,0,36,36H196.9l-3.62,10.87-7.81,5.2A39.15,39.15,0,0,0,168,456.71V464a8,8,0,0,0,8,8H337.37a8,8,0,0,0,8-8v-7.29a39.13,39.13,0,0,0-17.47-32.64l-8-5.33L315.71,408H452a36,36,0,0,0,36-36V76A36,36,0,0,0,452,40ZM319,437.39A23.16,23.16,0,0,1,329.36,456H184a23.19,23.19,0,0,1,10.33-18.61l10.1-6.73a8,8,0,0,0,3.15-4.13L213.77,408H224a32,32,0,0,0,63.76,4,33.09,33.09,0,0,0,.24-4h10.53l7.39,18.91a8,8,0,0,0,3,3.75ZM240,408h32a20.11,20.11,0,0,1-.11,2.05A16,16,0,0,1,240,408Zm232-36a20,20,0,0,1-20,20H60a20,20,0,0,1-20-20V360H472Zm0-28H40V76A20,20,0,0,1,60,56H452a20,20,0,0,1,20,20Z"/><path class="cls-1" d="M212,104h-7.06L191.15,76.42A8,8,0,0,0,184,72H120a8,8,0,0,0-6.4,3.2L92,104H82a26,26,0,0,0-26,26v22a8,8,0,0,0,8,8H81.38a24,24,0,0,0,45.24,0h34.76a24,24,0,0,0,45.24,0H224a8,8,0,0,0,8-8V124A20,20,0,0,0,212,104ZM160,88h19.06l8,16H160Zm-36,0h20v16H112Zm-20,72a8,8,0,1,1,8-8A8,8,0,0,1,104,160Zm80,0a8,8,0,1,1,8-8A8,8,0,0,1,184,160Zm32-16h-9.38a24,24,0,0,0-45.24,0H126.62a24,24,0,0,0-45.24,0H72V130a10,10,0,0,1,10-10H212a4,4,0,0,1,4,4Z"/><path class="cls-1" d="M451.76,97.22,432,109.57V104a8,8,0,0,0-8-8H360a8,8,0,0,0-8,8v64a8,8,0,0,0,8,8h64a8,8,0,0,0,8-8V128.43l28.24-17.65a8,8,0,0,0-8.48-13.56ZM416,119.57l-20.78,13-4.07-8.13a8,8,0,0,0-14.3,7.16l8,16a8,8,0,0,0,10.73,3.58c.22-.12.45-.24.66-.38L416,138.43V160H368V112h48Z"/><path class="cls-1" d="M328,112H256a8,8,0,0,0,0,16h72a8,8,0,0,0,0-16Z"/><path class="cls-1" d="M256,160h24a8,8,0,0,0,0-16H256a8,8,0,0,0,0,16Z"/><path class="cls-1" d="M328,144H304a8,8,0,0,0,0,16h24a8,8,0,0,0,0-16Z"/><path class="cls-1" d="M296,264H256a8,8,0,0,0,0,16h40a8,8,0,0,0,0-16Z"/><path class="cls-1" d="M328,264h-8a8,8,0,0,0,0,16h8a8,8,0,0,0,0-16Z"/><path class="cls-1" d="M328,232H256a8,8,0,0,0,0,16h72a8,8,0,0,0,0-16Z"/><circle class="cls-1" cx="256" cy="320" r="8"/><circle class="cls-1" cx="288" cy="320" r="8"/><circle class="cls-1" cx="224" cy="320" r="8"/><path class="cls-1" d="M206.4,195.2A8,8,0,0,0,200,192H128a8,8,0,0,0-6.4,3.2L100,224H82a26,26,0,0,0-26,26v22a8,8,0,0,0,8,8H81.38a24,24,0,0,0,45.24,0h34.76a24,24,0,0,0,45.24,0H214a18,18,0,0,0,18-18V232a8,8,0,0,0-1.6-4.8ZM208,224H168V208h28Zm-76-16h20v16H120Zm-28,72a8,8,0,1,1,8-8A8,8,0,0,1,104,280Zm80,0a8,8,0,1,1,8-8A8,8,0,0,1,184,280Zm32-18a2,2,0,0,1-2,2h-7.38a24,24,0,0,0-45.24,0H126.62a24,24,0,0,0-45.24,0H72V250a10,10,0,0,1,10-10H216Z"/><path class="cls-1" d="M424,208H360a8,8,0,0,0-8,8v64a8,8,0,0,0,8,8h64a8,8,0,0,0,8-8V216A8,8,0,0,0,424,208Zm-56,27.31L380.69,248,368,260.69ZM379.31,224h25.38L392,236.69ZM392,259.31,404.69,272H379.31ZM403.31,248,416,235.31v25.38Z"/></g></svg>