<svg id="Layer_1" data-name="Layer 1" xmlns="http://www.w3.org/2000/svg" viewBox="0 0 512 512"><defs><style>.cls-1{fill:#f56c1d;}</style></defs><title>Artboard 1</title><g id="outline"><path class="cls-1" d="M472,168H448V88a8,8,0,0,0-8-8,8.11,8.11,0,0,0-1.84.21L155.7,147.11a35.88,35.88,0,0,0-27.7,35V248H64a48,48,0,0,0-48,47.94V400a8,8,0,0,0,8,8H57a32,32,0,0,0,62,0H289a32,32,0,0,0,62,0h73a8,8,0,0,0,8-8V368a8,8,0,0,0-8-8H245.42l-14-35a8,8,0,0,0-7.43-5H192V205.88l208-65V168H360a24,24,0,0,0-24,23.14L321.65,267.8l-10.07,1.61A27.88,27.88,0,0,0,288,297.06V320a8,8,0,0,0,8,8h17.38a24,24,0,0,0,45.24,0h90.76A24,24,0,0,0,496,320V192A24,24,0,0,0,472,168ZM32,296a32,32,0,0,1,32-32H80v45.19L52.15,344H32ZM88,416a16,16,0,1,1,16-16A16,16,0,0,1,88,416Zm40-24h-9a32,32,0,0,0-62,0H32V360H56a8,8,0,0,0,6.25-3l32-40A8,8,0,0,0,96,312V264h32Zm185.36-80H304V297.06a11.94,11.94,0,0,1,10.11-11.85l4.41-.7ZM176,392H144V208h32Zm240-16v16H351a32,32,0,0,0-9.86-16Zm-96,8a16,16,0,1,1-16,16A16,16,0,0,1,320,384Zm-21.13-8A32,32,0,0,0,289,392H192V376Zm-80.29-40,9.6,24H192V336Zm-35.8-144H144v-9.86a19.92,19.92,0,0,1,15.39-19.46L432,98.12v16ZM416,135.88l16-5V168H416V136a.49.49,0,0,0,0-.12ZM336,328a8,8,0,0,1-8-7.41l.75-4A8,8,0,1,1,336,328Zm72-16H358.62a24,24,0,0,0-26-15.75l2.7-14.42L346.72,280H408Zm0-48H360l9-12a10.05,10.05,0,0,1,8-4h31Zm64,64a8,8,0,1,1,8-8A8,8,0,0,1,472,328Zm8-30.62A24,24,0,0,0,449.38,312v0H424V280h56ZM424,264V248h24.54a10,10,0,0,1,7.08,2.93L468.69,264Zm56-11.31-13.07-13.07A25.82,25.82,0,0,0,448.54,232H377a26.12,26.12,0,0,0-20.8,10.4L339.26,265l-.83.13,9.79-52.22A23.94,23.94,0,0,0,360,216H472a23.7,23.7,0,0,0,8-1.38ZM472,200H360a8,8,0,0,1,0-16H472a8,8,0,0,1,0,16Z"/><path class="cls-1" d="M80,352a8,8,0,0,0,8,8h16a8,8,0,0,0,0-16H88A8,8,0,0,0,80,352Z"/></g></svg>