<svg id="Layer_1" data-name="Layer 1" xmlns="http://www.w3.org/2000/svg" viewBox="0 0 512 512"><defs><style>.cls-1{fill:#f56c1d;}</style></defs><title>Artboard 1</title><path class="cls-1" d="M384.82,412c-2.91,40.56-8.55,46.2-43.85,46.3-42.8.12-47.78-4.11-51.37-48.55-7.62,3.78-17.34,5.32-19.51,10.22-11.32,25.47-29.6,39.44-57.53,37.79-27.15-1.59-43.2-18-51.21-45.75-34.46,0-68.9.14-103.33-.06-14.82-.09-14.82-.41-15.58-17.64h115c8.82-13,14.36-25.55,23.67-34,26.76-24.14,67.78-14.15,86.28,18.78,3.86,6.86,11.5,11.59,17.4,17.31l6.25-4c0-25.25.67-50.52-.28-75.73-.47-12.61-9.38-22.92-21.24-14.91-24.27,16.38-24.78,2-25.47-16.07-.16-4.27-2.76-8.46-5.46-16.15-10,5.13-19.75,8-26.6,14.11-12.21,10.9-20.16,7.6-27.59-4.57-.4-.66-1-1.21-1.32-1.89-24.79-51-65.42-68.69-120.56-60.09-18.94,3-19.35.35-20-15.44C107.69,192.14,169,192,195.66,268.21c46.9-22.21,53.82-20.62,68.25,11.27l35.93,6.25c11.57-29.57,25.15-60.46,35.69-92.37,9-27.15,26.85-43,53.31-49,20.92-4.75,42.42-7.43,63.82-9.19,5.12-.42,10.84,6.47,16.28,10l-3.35,6.11c-17.45,2-35,3.42-52.34,6.14-29.71,4.67-54.69,15.57-62.79,48.87-2.89,11.87-9,22.93-12.8,34.62-7.74,23.68-3,31.24,22.15,31.87,34.61.87,69.25.22,109.75.22-4.44,8.21-7.18,17.76-10,17.78-45,.32-90-.58-140.95-1.28-16.55,24.86-7.54,60.88-7.69,95.35,0,2.85,11.71,8.15,18.05,8.25,44.69.72,89.39.38,134.78.38,5.61,11.91,5.3,18.93-10.37,18.62C431.13,411.68,408.85,412,384.82,412Zm-130.9-8.38c.51-20.07-15.32-36.8-35.72-37.72-20.89-1-36.91,13.72-38,34.81-1.13,22.11,14.5,38.9,36.2,38.9A37.11,37.11,0,0,0,253.92,403.63Zm52.47,9.14c4.26,10.62,6.21,24,10.6,24.85A109.35,109.35,0,0,0,359.6,437c3.69-.78,4.58-14.76,7.18-24.2Z"/><path class="cls-1" d="M210.23,91.1l13-22.43c4.76,2.35,9.26,3.09,11.09,5.7C248.91,95.18,267.84,97.62,290.47,90c4.78-1.6,11.17,1.59,16.82,2.57-2.22,5.8-3,13-7,17.1-7.35,7.68-16.55,13.58-28.88,23.3,15.08,13.59,26.41,22.69,36.25,33.18,4.53,4.83,6.14,12.41,9.07,18.74-7.12,1.06-14.35,3.43-21.35,2.9-14.42-1.08-28.73-3.72-44.16-5.86-5.15,12.06-9.41,23.52-15,34.31-2.1,4.08-6.8,8.07-11.1,9.24-2,.56-6.47-5.27-8.77-8.87a42.25,42.25,0,0,1-5.28-12.73c-4.37-18.33-14.67-26.41-34.31-23.79-7.35,1-15.43-3.48-23.18-5.46,3-6.7,4.32-15,9.18-19.8,15-14.77,13.94-28,1.43-43.88-9.95-12.6-18-26.87-25.61-41.06-2.31-4.28-.57-10.76-.68-16.23,4.9.58,10.66-.3,14.57,2C171.8,66.87,190.57,78.91,210.23,91.1Zm68.15,75.42C254.83,132,254.83,132,263,118.69L230.79,100.4c-17.63,35.36-32.78-6.1-52.22-.83,12.64,19.39,31.94,38.89,2.53,62.31,25.67-5.66,37.66,6.32,48.13,32.17C233.16,150.31,258.53,165.76,278.38,166.52Z"/><path class="cls-1" d="M361.32,300.94c8.09,0,10.4.11,12.71,0,19.18-1,37.83,3.42,42.47,23.42,2.8,12.12-.65,29.61-8.2,39.33-13,16.73-32.78,13.19-50.81,5.11a62.72,62.72,0,0,1-6.11-3.25c-16.59-9.75-36.82-18.36-31.28-42.6C325.87,297.67,347.78,300.64,361.32,300.94Zm8.92,14.59-2,3.93c-3.85,0-7.9-.77-11.52.17-6.21,1.6-12.16,4.26-18.21,6.47,4,5.84,7.8,11.92,12.27,17.41a13.55,13.55,0,0,0,7.89,4.55c12.11,1.62,24.38,3.71,36.41,2.88,2.26-.16,7.16-17.07,4.8-19.05C391.39,324.77,380.33,320.73,370.24,315.53Z"/></svg>