<svg id="Layer_1" data-name="Layer 1" xmlns="http://www.w3.org/2000/svg" viewBox="0 0 512 512"><defs><style>.cls-1{fill:#f56c1d;}</style></defs><title>Artboard 1</title><g id="outline"><path class="cls-1" d="M300,168h-7.06l-13.79-27.58A8,8,0,0,0,272,136H208a8,8,0,0,0-6.4,3.2L180,168H170a26,26,0,0,0-26,26v22a8,8,0,0,0,8,8h17.38a24,24,0,0,0,45.24,0h34.76a24,24,0,0,0,45.24,0H312a8,8,0,0,0,8-8V188a20,20,0,0,0-20-20Zm-24.94,0H248V152h19.06ZM212,152h20v16H200Zm-20,72a8,8,0,1,1,8-8A8,8,0,0,1,192,224Zm80,0a8,8,0,1,1,8-8A8,8,0,0,1,272,224Zm32-16h-9.38a24,24,0,0,0-45.24,0H214.62a24,24,0,0,0-45.24,0H160V194a10,10,0,0,1,10-10H300a4,4,0,0,1,4,4Z"/><path class="cls-1" d="M112,288a24,24,0,1,0,24,24A24,24,0,0,0,112,288Zm0,32a8,8,0,1,1,8-8A8,8,0,0,1,112,320Z"/><path class="cls-1" d="M112,352a24,24,0,1,0,24,24A24,24,0,0,0,112,352Zm0,32a8,8,0,1,1,8-8A8,8,0,0,1,112,384Z"/><path class="cls-1" d="M176,336a24,24,0,1,0-24-24A24,24,0,0,0,176,336Zm0-32a8,8,0,1,1-8,8A8,8,0,0,1,176,304Z"/><path class="cls-1" d="M240,288a24,24,0,1,0,24,24A24,24,0,0,0,240,288Zm0,32a8,8,0,1,1,8-8A8,8,0,0,1,240,320Z"/><path class="cls-1" d="M240,352a24,24,0,1,0,24,24A24,24,0,0,0,240,352Zm0,32a8,8,0,1,1,8-8A8,8,0,0,1,240,384Z"/><path class="cls-1" d="M304,400a24,24,0,1,0-24-24A24,24,0,0,0,304,400Zm0-32a8,8,0,1,1-8,8A8,8,0,0,1,304,368Z"/><path class="cls-1" d="M368,336a24,24,0,1,0-24-24A24,24,0,0,0,368,336Zm0-32a8,8,0,1,1-8,8A8,8,0,0,1,368,304Z"/><path class="cls-1" d="M368,400a24,24,0,1,0-24-24A24,24,0,0,0,368,400Zm0-32a8,8,0,1,1-8,8A8,8,0,0,1,368,368Z"/><path class="cls-1" d="M112,416a24,24,0,1,0,24,24h0A24,24,0,0,0,112,416Zm0,32a8,8,0,1,1,8-8A8,8,0,0,1,112,448Z"/><path class="cls-1" d="M176,416a24,24,0,1,0,24,24h0A24,24,0,0,0,176,416Zm0,32a8,8,0,1,1,8-8A8,8,0,0,1,176,448Z"/><path class="cls-1" d="M240,416a24,24,0,1,0,24,24h0A24,24,0,0,0,240,416Zm0,32a8,8,0,1,1,8-8A8,8,0,0,1,240,448Z"/><path class="cls-1" d="M194.28,371.14l-29.78,27A7.8,7.8,0,0,1,154,386.56s29.65-26.75,30-27L160.28,381l29.81-26.95a7.8,7.8,0,0,1,10.45,11.58s-29.68,26.71-30.08,27"/><path class="cls-1" d="M170.38,359.81l30.3,26.4A7.8,7.8,0,0,1,190.42,398s-30-26.3-30.34-26.67l24.09,21.13L153.91,366a7.8,7.8,0,0,1,10.27-11.73s30,26.34,30.3,26.71"/><path class="cls-1" d="M323.2,297.6l-24.33,18.25-3.71-7.43a8,8,0,0,0-14.31,7.16l8,16a8,8,0,0,0,11.95,2.82l32-24a8,8,0,0,0-9.59-12.81Z"/><path class="cls-1" d="M323.2,425.6l-24.33,18.25-3.71-7.43a8,8,0,0,0-14.31,7.16l8,16a8,8,0,0,0,11.95,2.82l32-24a8,8,0,0,0-9.6-12.8Z"/><path class="cls-1" d="M387.2,425.6l-24.33,18.25-3.71-7.43a8,8,0,0,0-14.31,7.16l8,16a8,8,0,0,0,11.95,2.82l32-24a8,8,0,0,0-9.6-12.8Z"/><path class="cls-1" d="M440,56H400V40a24,24,0,0,0-48,0V56H320V40a24,24,0,0,0-48,0V56H208V40a24,24,0,0,0-48,0V56H128V40a24,24,0,0,0-48,0V56H70A22,22,0,0,0,48,78V488a8,8,0,0,0,8,8H424a8,8,0,0,0,8-8V472h24a8,8,0,0,0,8-8V80A24,24,0,0,0,440,56Zm8,48H432V80a8,8,0,0,1,16,0ZM64,120H416V256H64ZM368,40a8,8,0,0,1,16,0V64a8,8,0,0,1-16,0Zm-80,0a8,8,0,0,1,16,0V64a8,8,0,0,1-16,0ZM176,40a8,8,0,0,1,16,0V64a8,8,0,0,1-16,0ZM96,40a8,8,0,0,1,16,0V64a8,8,0,0,1-16,0ZM64,78a6,6,0,0,1,6-6H81.38a24,24,0,0,0,45.24,0h34.76a24,24,0,0,0,45.24,0h66.76a24,24,0,0,0,45.24,0h34.76a24,24,0,0,0,45.24,0h18.76A23.7,23.7,0,0,0,416,80v24H64ZM416,480H64V272H416Zm32-24H432V120h16Z"/></g></svg>