<svg id="Layer_1" data-name="Layer 1" xmlns="http://www.w3.org/2000/svg" viewBox="0 0 512 512"><defs><style>.cls-1{fill:#f56c1d;}</style></defs><title>Artboard 1</title><g id="outline"><path class="cls-1" d="M487.15,324.42,472.94,296l6.21-12.42A8,8,0,0,0,472,272H409.89l-44.15-22.08a94.52,94.52,0,0,0-42-9.92H262.94a87.85,87.85,0,0,0-46.64,13.38L173.71,280H128.5a130.54,130.54,0,0,0-64.68,17.18,62.8,62.8,0,0,0-31.29,46.73l-1.32.13A8,8,0,0,0,24,352v24a8,8,0,0,0,8,8H88A39.9,39.9,0,0,0,136,384H376A39.91,39.91,0,0,0,429,379.54l52.77-11.73a8,8,0,0,0,5.42-4.23A44.28,44.28,0,0,0,487.15,324.42ZM408,288h51.06l-2.21,4.42a8,8,0,0,0,0,7.16l11.41,22.83-34.78,7.73A40,40,0,0,0,363.35,368H313l35.69-25.49A8,8,0,0,0,352,336V292l24.85-18.63,27.57,13.78A8,8,0,0,0,408,288ZM197.42,368,184,334.46V296H336v35.88L285.44,368ZM360.85,265.37,341.33,280H328V256.12a78.52,78.52,0,0,1,30.58,8.11Zm-136.07,1.57A72,72,0,0,1,262.94,256H312v24H203.9Zm-153,44.13A114.59,114.59,0,0,1,128.5,296H168v40a7.92,7.92,0,0,0,.57,3l11.61,29H148.65a40,40,0,0,0-73.31-32c-.53,1.23-1,2.49-1.42,3.77L49,342.26A46.88,46.88,0,0,1,71.75,311.07ZM40,359.24,72.2,356a39.81,39.81,0,0,0,3.15,12H40ZM88,352a24,24,0,1,1,24,24A24,24,0,0,1,88,352Zm288,0a24,24,0,1,1,24,24A24,24,0,0,1,376,352Zm98.25,1.08L439,360.92a39.72,39.72,0,0,0,.42-15.7l35.54-7.9A28,28,0,0,1,474.25,353.08Z"/><circle class="cls-1" cx="112" cy="352" r="10"/><circle class="cls-1" cx="400" cy="352" r="10"/><path class="cls-1" d="M312,312H296a8,8,0,0,0,0,16h16a8,8,0,0,0,0-16Z"/><path class="cls-1" d="M380.42,175.15a46,46,0,0,1,20.43,20.43,8,8,0,0,0,10.73,3.57,7.91,7.91,0,0,0,3.57-3.57,46,46,0,0,1,20.43-20.43,8,8,0,0,0,3.57-10.73,7.91,7.91,0,0,0-3.57-3.57,46,46,0,0,1-20.43-20.43,8,8,0,0,0-10.73-3.57,7.91,7.91,0,0,0-3.57,3.57,46,46,0,0,1-20.43,20.43,8,8,0,0,0-3.57,10.73A7.91,7.91,0,0,0,380.42,175.15ZM408,158.69a63,63,0,0,0,9.31,9.31,63,63,0,0,0-9.31,9.31,63,63,0,0,0-9.31-9.31A63,63,0,0,0,408,158.69Z"/><path class="cls-1" d="M60.42,159.15a46,46,0,0,1,20.43,20.43,8,8,0,0,0,10.73,3.57,7.91,7.91,0,0,0,3.57-3.57,46,46,0,0,1,20.43-20.43,8,8,0,0,0,3.57-10.73,7.91,7.91,0,0,0-3.57-3.57,46,46,0,0,1-20.43-20.43,8,8,0,0,0-10.73-3.57,7.91,7.91,0,0,0-3.57,3.57,46,46,0,0,1-20.43,20.43,8,8,0,0,0-3.57,10.73A7.91,7.91,0,0,0,60.42,159.15ZM88,142.69A63,63,0,0,0,97.31,152,63,63,0,0,0,88,161.31,63,63,0,0,0,78.69,152,63,63,0,0,0,88,142.69Z"/><path class="cls-1" d="M52.42,247.15a46,46,0,0,1,20.43,20.43,8,8,0,0,0,10.73,3.57,7.91,7.91,0,0,0,3.57-3.57,46,46,0,0,1,20.43-20.43,8,8,0,0,0,3.57-10.73,7.91,7.91,0,0,0-3.57-3.57,46,46,0,0,1-20.43-20.43,8,8,0,0,0-10.73-3.57,7.91,7.91,0,0,0-3.57,3.57,46,46,0,0,1-20.43,20.43,8,8,0,0,0-3.57,10.73A7.91,7.91,0,0,0,52.42,247.15ZM80,230.69A63,63,0,0,0,89.31,240,63,63,0,0,0,80,249.31,63,63,0,0,0,70.69,240,63,63,0,0,0,80,230.69Z"/><path class="cls-1" d="M424,216a8,8,0,0,0,4.42,7.15,46,46,0,0,1,20.43,20.43,8,8,0,0,0,10.73,3.57,7.91,7.91,0,0,0,3.57-3.57,46,46,0,0,1,20.43-20.43,8,8,0,0,0,3.57-10.73,7.91,7.91,0,0,0-3.57-3.57,46,46,0,0,1-20.43-20.43,8,8,0,0,0-10.73-3.57,7.91,7.91,0,0,0-3.57,3.57,46,46,0,0,1-20.43,20.43A8,8,0,0,0,424,216Zm32-9.31a63,63,0,0,0,9.31,9.31,63,63,0,0,0-9.31,9.31,63,63,0,0,0-9.31-9.31A63,63,0,0,0,456,206.69Z"/><path class="cls-1" d="M104,196a8,8,0,0,0,4.42,7.15,55,55,0,0,1,24.43,24.43,8,8,0,0,0,10.73,3.57,7.91,7.91,0,0,0,3.57-3.57,55,55,0,0,1,24.43-24.43,8,8,0,0,0,3.57-10.73,7.91,7.91,0,0,0-3.57-3.57,55,55,0,0,1-24.43-24.43,8,8,0,0,0-10.73-3.57,7.91,7.91,0,0,0-3.57,3.57,55,55,0,0,1-24.43,24.43A8,8,0,0,0,104,196Zm36-13a71.65,71.65,0,0,0,13,13,71.65,71.65,0,0,0-13,13,71.65,71.65,0,0,0-13-13A71.65,71.65,0,0,0,140,183Z"/></g></svg>