<svg id="Layer_1" data-name="Layer 1" xmlns="http://www.w3.org/2000/svg" viewBox="0 0 512 512"><defs><style>.cls-1{fill:#f56c1d;}</style></defs><title>Artboard 1</title><g id="outline"><path class="cls-1" d="M477.21,160.77l-56-48a8,8,0,0,0-5.18-1.93H241.33A44.14,44.14,0,0,0,220,116.38l-62.59,34.77L54.78,166.94a8,8,0,0,0-5.44,3.46l-16,24A8.07,8.07,0,0,0,32,198.84v40a8,8,0,0,0,5.47,7.59l44.78,14.93a48,48,0,0,0,91,1.48h181.5a48,48,0,0,0,90.5,0H456a8,8,0,0,0,7.43-5l16-40a7.92,7.92,0,0,0,.57-3v-48A8,8,0,0,0,477.21,160.77ZM456,206.84a8,8,0,0,1,0-16h8v16Zm-168,40v-80h64v29.44l-36.12,50.56Zm0-96v-24H399.36l-19.21,24Zm-60.27-20.47a28.13,28.13,0,0,1,13.6-3.53H272v24H190.87ZM78,179.55l-1,3.09a12,12,0,0,1-11.39,8.2H55l5.75-8.63ZM48,230.84H82.75a48,48,0,0,0-2.64,12.94L48,233.08Zm80,48a32,32,0,1,1,32-32A32,32,0,0,1,128,278.84Zm0-80a47.91,47.91,0,0,0-35.74,16H48v-8H65.58A28,28,0,0,0,92.15,187.7l3.44-10.33a4.94,4.94,0,0,0,.15-.55l64.87-10H272v80H176A48.06,48.06,0,0,0,128,198.84Zm224,48H335.55l31-43.35a8,8,0,0,0,1.49-4.65v-32h16a8,8,0,0,0,6.25-3l26.83-33.54L464,170.52v4.32h-8a24,24,0,0,0-24,24,23.76,23.76,0,0,0,1.38,8h-6.89a48,48,0,0,0-74.49,40Zm48,32a32,32,0,1,1,32-32A32,32,0,0,1,400,278.84Zm50.58-32H448a47.62,47.62,0,0,0-6.46-24h18.64Z"/><path class="cls-1" d="M400,222.84a24,24,0,1,0,24,24A24,24,0,0,0,400,222.84Zm0,32a8,8,0,1,1,8-8A8,8,0,0,1,400,254.84Z"/><path class="cls-1" d="M128,222.84a24,24,0,1,0,24,24A24,24,0,0,0,128,222.84Zm0,32a8,8,0,1,1,8-8A8,8,0,0,1,128,254.84Z"/><path class="cls-1" d="M328,182.84H312a8,8,0,0,0,0,16h16a8,8,0,0,0,0-16Z"/><path class="cls-1" d="M248,182.84H232a8,8,0,0,0,0,16h16a8,8,0,0,0,0-16Z"/><path class="cls-1" d="M292.44,334.41l-19-.47L267.11,316a11.86,11.86,0,0,0-11.31-8h0a11.87,11.87,0,0,0-11.32,8l-6.32,17.93-19,.47a12,12,0,0,0-7,21.53l15.1,11.55-5.43,18.22A12,12,0,0,0,240.14,399l15.65-10.8L271.44,399a12,12,0,0,0,18.31-13.3l-5.43-18.22,15.1-11.55a12,12,0,0,0-7-21.53Zm-20,22a12.07,12.07,0,0,0-4.21,13l3,10-8.57-5.91a12.07,12.07,0,0,0-13.63,0l-8.57,5.91,3-10a12.06,12.06,0,0,0-4.21-12.95l-8.27-6.33,10.41-.25a12.08,12.08,0,0,0,11-8L255.8,332l3.46,9.83a12.08,12.08,0,0,0,11,8l10.42.26Z"/><path class="cls-1" d="M404.29,334.41l-19-.47L379,316a12,12,0,0,0-22.63,0L350,333.94l-19,.47a12,12,0,0,0-7,21.53l15.1,11.55-5.43,18.22A12,12,0,0,0,352,399l15.65-10.79L383.3,399a12,12,0,0,0,18.31-13.3l-5.43-18.22,15.1-11.55a12,12,0,0,0-7-21.53Zm-20,22a12.07,12.07,0,0,0-4.21,13l3,10-8.57-5.91a12.07,12.07,0,0,0-13.63,0l-8.57,5.91,3-10a12.06,12.06,0,0,0-4.21-13l-8.27-6.33,10.41-.25a12.08,12.08,0,0,0,11-8l3.47-9.83,3.46,9.83a12.09,12.09,0,0,0,11,8l10.41.25Z"/><path class="cls-1" d="M181,334.41l-19-.47L155.68,316a12,12,0,0,0-22.63,0l-6.33,17.93-19,.47a12,12,0,0,0-7,21.53l15.1,11.55-5.43,18.22A12,12,0,0,0,128.7,399l15.65-10.8L160,399a12,12,0,0,0,18.31-13.3l-5.43-18.22L188,355.94a12,12,0,0,0-7-21.53Zm-20,22a12.07,12.07,0,0,0-4.21,13l3,10-8.58-5.91a12.06,12.06,0,0,0-13.62,0L129,379.39l3-10a12.05,12.05,0,0,0-4.2-13l-8.28-6.33,10.42-.25a12.09,12.09,0,0,0,11-8l3.46-9.83,3.46,9.83a12.09,12.09,0,0,0,11,8l10.42.25Z"/></g></svg>